<svg width="601" height="334" viewBox="0 0 601 334" fill="none" xmlns="http://www.w3.org/2000/svg">
<g filter="url(#filter0_d_1_62)">
<path d="M274.98 334V335.002H275.982V334H274.98ZM274.98 0V-1.00151H273.978V0H274.98ZM595.59 0C595.59 2.94996 597.982 5.34138 600.932 5.34138C603.882 5.34138 606.273 2.94996 606.273 0C606.273 -2.94996 603.882 -5.34138 600.932 -5.34138C597.982 -5.34138 595.59 -2.94996 595.59 0ZM0 334V335.002H274.98V334V332.998H0V334ZM274.98 334H275.982V0H274.98H273.978V334H274.98ZM274.98 0V1.00151H600.932V0V-1.00151H274.98V0Z" fill="#40DDE3"/>
</g>
<defs>
<filter id="filter0_d_1_62" x="-16.0241" y="-21.3657" width="638.321" height="372.391" filterUnits="userSpaceOnUse" color-interpolation-filters="sRGB">
<feFlood flood-opacity="0" result="BackgroundImageFix"/>
<feColorMatrix in="SourceAlpha" type="matrix" values="0 0 0 0 0 0 0 0 0 0 0 0 0 0 0 0 0 0 127 0" result="hardAlpha"/>
<feOffset/>
<feGaussianBlur stdDeviation="8"/>
<feComposite in2="hardAlpha" operator="out"/>
<feColorMatrix type="matrix" values="0 0 0 0 0.270588 0 0 0 0 0.968627 0 0 0 0 0.980392 0 0 0 1 0"/>
<feBlend mode="normal" in2="BackgroundImageFix" result="effect1_dropShadow_1_62"/>
<feBlend mode="normal" in="SourceGraphic" in2="effect1_dropShadow_1_62" result="shape"/>
</filter>
</defs>
</svg>
